<svg xmlns="http://www.w3.org/2000/svg" viewBox="0 0 342.04 539"><defs><style>.a{fill:#fff;}</style></defs><path class="a" d="M582.44,300.51a26.32,26.32,0,0,0-45,18.61V542.48a5.92,5.92,0,0,1-5.94,5.94H520.13a5.92,5.92,0,0,1-5.94-5.94V240.9a20.24,20.24,0,0,0-6.33-14.72,26.15,26.15,0,0,0-22.18-12.27H382.58a5.92,5.92,0,0,1-5.94-5.94V196.61a5.92,5.92,0,0,1,5.94-5.94h185.8a20.41,20.41,0,0,0,20.4-20.39v-5.94A26.36,26.36,0,0,0,562.44,138H272A19.91,19.91,0,0,0,258,143.54a20.38,20.38,0,0,0-10,17.43V495.88a26.34,26.34,0,1,0,52.67,0V272.52a5.92,5.92,0,0,1,5.94-5.94h11.42a5.92,5.92,0,0,1,5.94,5.94V574.76A26.26,26.26,0,0,0,350.3,601h.46a17.84,17.84,0,0,0,1.79.06h103a5.92,5.92,0,0,1,5.94,5.94v11.42a5.92,5.92,0,0,1-5.94,5.94H269.84a20.35,20.35,0,0,0-20.39,20.33v6A26.26,26.26,0,0,0,275.72,677H566.27a19.93,19.93,0,0,0,13.93-5.54A20.23,20.23,0,0,0,590.1,654v-335A26,26,0,0,0,582.44,300.51Zm-120.92,242a5.92,5.92,0,0,1-5.94,5.94H376.64V272.52a5.92,5.92,0,0,1,5.94-5.94h78.94Z" transform="translate(-248.06 -138)"/></svg>